<svg width="12" height="14" fill="none" xmlns="http://www.w3.org/2000/svg"><path fill-rule="evenodd" clip-rule="evenodd" d="M6.495 1.152C7.008.528 7.883.05 8.633 0c.127.853-.222 1.684-.682 2.27-.477.617-1.295 1.098-2.093 1.098h-.06c-.15-.813.232-1.651.697-2.216zm.83 2.466c.428-.162.898-.341 1.585-.341l-.003.001c.952 0 1.962.521 2.681 1.421-2.355 1.294-1.972 4.67.409 5.574-.325.73-.483 1.053-.906 1.698-.59.897-1.418 2.015-2.449 2.027h-.019c-.412 0-.685-.126-.98-.262-.344-.158-.717-.329-1.37-.329h-.02c-.664.004-1.047.176-1.4.333-.302.136-.582.26-.996.26H3.84c-1.032-.01-1.818-1.02-2.407-1.92C-.214 9.565-.386 6.613.63 5.045c.724-1.111 1.864-1.764 2.932-1.764.573 0 1.034.164 1.472.32.398.142.778.277 1.206.277.4 0 .727-.124 1.084-.26z" fill="#6A6A6A"/></svg>