<svg width="16" height="16" fill="none" xmlns="http://www.w3.org/2000/svg"><path d="M11.534 5.802L3.06 1.165c-.279-.18-.6-.204-.877-.112L9.287 8l2.247-2.198z" fill="#32BBFF"/><path d="M2.183 1.053a.974.974 0 00-.683.932v12.03a.974.974 0 00.682.931L9.287 8 2.183 1.053z" fill="#32BBFF"/><path d="M9.287 8l-7.105 6.946c.278.093.6.071.878-.112a6047.02 6047.02 0 018.476-4.635l-2.25-2.2z" fill="#32BBFF"/><path d="M1.5 8v6.014a.974.974 0 00.682.932L9.287 8H1.5z" fill="#2C9FD9"/><path d="M3.06 1.165a1.02 1.02 0 00-1.028-.05l7.147 6.99 2.355-2.303C9.87 4.892 7.2 3.432 3.06 1.165z" fill="#29CC5E"/><path d="M9.179 7.894l-7.147 6.989c.306.159.697.168 1.029-.049 4.015-2.199 6.654-3.642 8.337-4.56l.138-.075-2.357-2.305z" fill="#D93F21"/><path d="M14.5 8a.97.97 0 00-.513-.857l-2.592-1.416-2.324 2.272 2.327 2.276c1.932-1.062 2.589-1.42 2.589-1.42A.97.97 0 0014.5 8z" fill="#FFD500"/><path d="M13.987 8.856a.97.97 0 00.513-.857H9.071l2.327 2.276c1.932-1.062 2.59-1.42 2.59-1.42z" fill="#FA0"/></svg>